<?xml version="1.0" encoding="UTF-8"?>
<svg width="20px" height="14px" viewBox="0 0 20 14" version="1.1" xmlns="http://www.w3.org/2000/svg" xmlns:xlink="http://www.w3.org/1999/xlink">
    <!-- Generator: Sketch 63.1 (92452) - https://sketch.com -->
    <title>Path</title>
    <desc>Created with Sketch.</desc>
    <g id="Website" stroke="none" stroke-width="1" fill="none" fill-rule="evenodd">
        <g id="Desktop-HD-Copy-8" transform="translate(-176.000000, -647.000000)" fill="#1D1F20" fill-rule="nonzero">
            <g id="Group-13" transform="translate(65.000000, 633.000000)">
                <g id="Group-2-Copy-13" transform="translate(100.000000, 0.000000)">
                    <path d="M11.85,21.867328 L28.0981,21.867328 L23.5387,26.5196027 C23.206775,26.858289 23.206775,27.4075158 23.5384875,27.7459853 C23.8704125,28.0846716 24.4088875,28.0846716 24.7408125,27.7459853 L30.75095,21.6132049 C30.790475,21.5728747 30.82575,21.5284249 30.856775,21.4811562 C30.8710125,21.4592566 30.881,21.4356222 30.893325,21.4128552 C30.90735,21.3859685 30.9235,21.3603827 30.9347625,21.3319782 C30.946875,21.3027063 30.953675,21.2723503 30.962175,21.2419943 C30.9691875,21.2179263 30.978325,21.1949425 30.9832125,21.170224 C30.9942625,21.1138486 31,21.0570395 31,21.0000136 C30.999575,20.9419035 30.99405,20.885528 30.9832125,20.8302368 C30.9781125,20.8042173 30.96855,20.7801493 30.9611125,20.7545636 C30.952825,20.7257254 30.94645,20.6964535 30.934975,20.6684826 C30.92265,20.6383434 30.906075,20.611023 30.890775,20.5826185 C30.8793,20.5613693 30.8701625,20.5396864 30.8569875,20.5193045 C30.8259625,20.4713854 30.7902625,20.4267187 30.750525,20.3861718 L24.7406,14.2540418 C24.408675,13.9153555 23.8704125,13.9153555 23.5384875,14.253825 C23.2065625,14.5925113 23.2065625,15.1417382 23.5384875,15.4806413 L28.0978875,20.1326991 L11.85,20.1326991 C11.3805875,20.1326991 11,20.5210392 11,21.0000136 C11,21.478988 11.3805875,21.867328 11.85,21.867328 Z" id="Path" transform="translate(21.000000, 21.000000) scale(-1, 1) translate(-21.000000, -21.000000) "></path>
                </g>
            </g>
        </g>
    </g>
</svg>