<?xml version="1.0" encoding="UTF-8"?>
<svg width="20px" height="14px" viewBox="0 0 20 14" version="1.1" xmlns="http://www.w3.org/2000/svg" xmlns:xlink="http://www.w3.org/1999/xlink">
    <!-- Generator: Sketch 63.1 (92452) - https://sketch.com -->
    <title>Path</title>
    <desc>Created with Sketch.</desc>
    <g id="Website" stroke="none" stroke-width="1" fill="none" fill-rule="evenodd">
        <g id="Desktop-HD-Copy-3" transform="translate(-938.000000, -1950.000000)" fill="#1D1F20" fill-rule="nonzero">
            <g id="Group-5-Copy-14" transform="translate(735.000000, 1674.000000)">
                <g id="iconfinder_arrow-right_227601" transform="translate(203.000000, 276.000000)">
                    <path d="M0.85,7.867328 L17.0981,7.867328 L12.5387,12.5196027 C12.206775,12.858289 12.206775,13.4075158 12.5384875,13.7459853 C12.8704125,14.0846716 13.4088875,14.0846716 13.7408125,13.7459853 L19.75095,7.61320487 C19.790475,7.57287474 19.82575,7.52842488 19.856775,7.48115624 C19.8710125,7.45925655 19.881,7.43562223 19.893325,7.41285523 C19.90735,7.38596848 19.9235,7.36038271 19.9347625,7.33197816 C19.946875,7.3027063 19.953675,7.27235029 19.962175,7.24199428 C19.9691875,7.21792631 19.978325,7.19494248 19.9832125,7.17022401 C19.9942625,7.11384858 20,7.05703948 20,7.00001356 C19.999575,6.94190349 19.99405,6.88552805 19.9832125,6.83023675 C19.9781125,6.80421732 19.96855,6.78014934 19.9611125,6.75456357 C19.952825,6.72572536 19.94645,6.6964535 19.934975,6.66848261 C19.92265,6.63834343 19.906075,6.61102303 19.890775,6.58261848 C19.8793,6.56136928 19.8701625,6.53968642 19.8569875,6.51930453 C19.8259625,6.4713854 19.7902625,6.42671871 19.750525,6.38617176 L13.7406,0.254041827 C13.408675,-0.0846444623 12.8704125,-0.0846444623 12.5384875,0.253824999 C12.2065625,0.592511288 12.2065625,1.14173816 12.5384875,1.48064128 L17.0978875,6.13269911 L0.85,6.13269911 C0.3805875,6.13269911 0,6.52103915 0,7.00001356 C0,7.47898796 0.3805875,7.867328 0.85,7.867328 Z" id="Path"></path>
                </g>
            </g>
        </g>
    </g>
</svg>