<?xml version="1.0" encoding="UTF-8"?>
<svg width="14px" height="14px" viewBox="0 0 14 14" version="1.1" xmlns="http://www.w3.org/2000/svg" xmlns:xlink="http://www.w3.org/1999/xlink">
    <!-- Generator: Sketch 63.1 (92452) - https://sketch.com -->
    <title>close-icon</title>
    <desc>Created with Sketch.</desc>
    <g id="Website" stroke="none" stroke-width="1" fill="none" fill-rule="evenodd">
        <g id="Desktop-HD-Copy-8" transform="translate(-37.000000, -1754.000000)" fill="#1D1F20">
            <g id="Group-13" transform="translate(31.000000, 633.000000)">
                <g id="Group-2-Copy-13">
                    <path d="M13,1119 C13.5522847,1119 14,1119.44772 14,1120 L14,1127 L21,1127 C21.5522847,1127 22,1127.44772 22,1128 C22,1128.55228 21.5522847,1129 21,1129 L14,1129 L14,1136 C14,1136.55228 13.5522847,1137 13,1137 C12.4477153,1137 12,1136.55228 12,1136 L12,1129 L5,1129 C4.44771525,1129 4,1128.55228 4,1128 C4,1127.44772 4.44771525,1127 5,1127 L12,1127 L12,1120 C12,1119.44772 12.4477153,1119 13,1119 Z" id="close-icon" transform="translate(13.000000, 1128.000000) rotate(45.000000) translate(-13.000000, -1128.000000) "></path>
                </g>
            </g>
        </g>
    </g>
</svg>