<?xml version="1.0" encoding="UTF-8"?>
<svg width="248px" height="23px" viewBox="0 0 248 23" version="1.1" xmlns="http://www.w3.org/2000/svg" xmlns:xlink="http://www.w3.org/1999/xlink">
    <!-- Generator: Sketch 63.1 (92452) - https://sketch.com -->
    <title>logo copy</title>
    <desc>Created with Sketch.</desc>
    <g id="Website" stroke="none" stroke-width="1" fill="none" fill-rule="evenodd">
        <g id="logo-copy">
            <g id="Group-23" transform="translate(24.000000, 0.000000)" fill="#333333" fill-rule="nonzero">
                <path d="M147.913979,17.2646809 L147.913979,2.94938298 L152.829617,2.94938298 L152.829617,0.479574468 L139.953043,0.479574468 L139.953043,2.94938298 L144.844702,2.94938298 L144.844702,17.2646809 L147.913979,17.2646809 Z M157.605787,17.5524255 C158.74078,17.5524255 159.771865,17.2886596 160.699043,16.7611277 C161.62622,16.2335957 162.357571,15.5022447 162.893096,14.5670745 C163.428621,13.6319043 163.696383,12.5488652 163.696383,11.3179574 C163.696383,10.0870496 163.428621,9.00401064 162.893096,8.06884043 C162.357571,7.13367021 161.630216,6.40231915 160.711032,5.87478723 C159.791848,5.34725532 158.764759,5.08348936 157.629766,5.08348936 C156.478787,5.08348936 155.443706,5.34725532 154.524521,5.87478723 C153.605337,6.40231915 152.873986,7.13367021 152.330468,8.06884043 C151.78695,9.00401064 151.515191,10.0870496 151.515191,11.3179574 C151.515191,12.5488652 151.782954,13.6319043 152.318479,14.5670745 C152.854004,15.5022447 153.581358,16.2335957 154.500543,16.7611277 C155.419727,17.2886596 156.454809,17.5524255 157.605787,17.5524255 Z M157.605787,14.8907872 C156.806496,14.8907872 156.11511,14.5910532 155.531628,13.9915851 C154.948145,13.392117 154.656404,12.5009078 154.656404,11.3179574 C154.656404,10.1350071 154.948145,9.24379787 155.531628,8.64432979 C156.11511,8.0448617 156.814489,7.74512766 157.629766,7.74512766 C158.413071,7.74512766 159.100461,8.0448617 159.691936,8.64432979 C160.283411,9.24379787 160.579149,10.1350071 160.579149,11.3179574 C160.579149,12.5009078 160.283411,13.392117 159.691936,13.9915851 C159.100461,14.5910532 158.405078,14.8907872 157.605787,14.8907872 Z M171.15817,17.5524255 C172.293163,17.5524255 173.324248,17.2886596 174.251426,16.7611277 C175.178603,16.2335957 175.909954,15.5022447 176.445479,14.5670745 C176.981004,13.6319043 177.248766,12.5488652 177.248766,11.3179574 C177.248766,10.0870496 176.981004,9.00401064 176.445479,8.06884043 C175.909954,7.13367021 175.182599,6.40231915 174.263415,5.87478723 C173.34423,5.34725532 172.317142,5.08348936 171.182149,5.08348936 C170.03117,5.08348936 168.996089,5.34725532 168.076904,5.87478723 C167.15772,6.40231915 166.426369,7.13367021 165.882851,8.06884043 C165.339333,9.00401064 165.067574,10.0870496 165.067574,11.3179574 C165.067574,12.5488652 165.335337,13.6319043 165.870862,14.5670745 C166.406387,15.5022447 167.133741,16.2335957 168.052926,16.7611277 C168.97211,17.2886596 170.007191,17.5524255 171.15817,17.5524255 Z M171.15817,14.8907872 C170.358879,14.8907872 169.667493,14.5910532 169.084011,13.9915851 C168.500528,13.392117 168.208787,12.5009078 168.208787,11.3179574 C168.208787,10.1350071 168.500528,9.24379787 169.084011,8.64432979 C169.667493,8.0448617 170.366872,7.74512766 171.182149,7.74512766 C171.965454,7.74512766 172.652844,8.0448617 173.244319,8.64432979 C173.835794,9.24379787 174.131532,10.1350071 174.131532,11.3179574 C174.131532,12.5009078 173.835794,13.392117 173.244319,13.9915851 C172.652844,14.5910532 171.957461,14.8907872 171.15817,14.8907872 Z M182.072894,17.2646809 L182.072894,9.56209107e-14 L179.003617,9.56209107e-14 L179.003617,17.2646809 L182.072894,17.2646809 Z M191.285128,17.5524255 C192.404135,17.5524255 193.403248,17.2846631 194.282468,16.7491383 C195.161688,16.2136135 195.857071,15.478266 196.368617,14.5430957 C196.880163,13.6079255 197.135936,12.5408723 197.135936,11.3419362 C197.135936,10.143 196.880163,9.07195035 196.368617,8.12878723 C195.857071,7.18562411 195.161688,6.44228369 194.282468,5.89876596 C193.403248,5.35524823 192.404135,5.08348936 191.285128,5.08348936 C190.278021,5.08348936 189.458748,5.28331206 188.827309,5.68295745 C188.195869,6.08260284 187.688319,6.54619149 187.30466,7.0737234 L187.30466,7.0737234 L187.30466,9.56209107e-14 L184.235383,9.56209107e-14 L184.235383,17.2646809 L186.968957,17.2646809 L187.30466,15.6341277 C187.720291,16.2415887 188.263809,16.7131702 188.935213,17.0488723 C189.606617,17.3845745 190.389922,17.5524255 191.285128,17.5524255 Z M190.637702,14.8668085 C189.646582,14.8668085 188.835301,14.5351028 188.203862,13.8716915 C187.572422,13.2082801 187.256702,12.3570355 187.256702,11.3179574 C187.256702,10.2788794 187.572422,9.42763475 188.203862,8.7642234 C188.835301,8.10081206 189.646582,7.76910638 190.637702,7.76910638 C191.612837,7.76910638 192.420121,8.10480851 193.059553,8.77621277 C193.698986,9.44761702 194.018702,10.3028582 194.018702,11.3419362 C194.018702,12.3810142 193.698986,13.2282624 193.059553,13.8836809 C192.420121,14.5390993 191.612837,14.8668085 190.637702,14.8668085 Z M204.597723,17.5524255 C205.732716,17.5524255 206.763801,17.2886596 207.690979,16.7611277 C208.618156,16.2335957 209.349507,15.5022447 209.885032,14.5670745 C210.420557,13.6319043 210.688319,12.5488652 210.688319,11.3179574 C210.688319,10.0870496 210.420557,9.00401064 209.885032,8.06884043 C209.349507,7.13367021 208.622152,6.40231915 207.702968,5.87478723 C206.783784,5.34725532 205.756695,5.08348936 204.621702,5.08348936 C203.470723,5.08348936 202.435642,5.34725532 201.516457,5.87478723 C200.597273,6.40231915 199.865922,7.13367021 199.322404,8.06884043 C198.778887,9.00401064 198.507128,10.0870496 198.507128,11.3179574 C198.507128,12.5488652 198.77489,13.6319043 199.310415,14.5670745 C199.84594,15.5022447 200.573294,16.2335957 201.492479,16.7611277 C202.411663,17.2886596 203.446745,17.5524255 204.597723,17.5524255 Z M204.597723,14.8907872 C203.798433,14.8907872 203.107046,14.5910532 202.523564,13.9915851 C201.940082,13.392117 201.64834,12.5009078 201.64834,11.3179574 C201.64834,10.1350071 201.940082,9.24379787 202.523564,8.64432979 C203.107046,8.0448617 203.806426,7.74512766 204.621702,7.74512766 C205.405007,7.74512766 206.092397,8.0448617 206.683872,8.64432979 C207.275348,9.24379787 207.571085,10.1350071 207.571085,11.3179574 C207.571085,12.5009078 207.275348,13.392117 206.683872,13.9915851 C206.092397,14.5910532 205.397014,14.8907872 204.597723,14.8907872 Z M213.977809,17.2646809 L216.999128,13.0444255 L219.996468,17.2646809 L223.305532,17.2646809 L218.965383,11.3179574 L223.305532,5.37123404 L219.996468,5.37123404 L216.999128,9.59148936 L213.977809,5.37123404 L210.692723,5.37123404 L215.008894,11.3179574 L210.692723,17.2646809 L213.977809,17.2646809 Z" id="Toolbox"></path>
                <path d="M3.0692766,17.2646809 L3.0692766,5.68295745 L7.74512766,14.8668085 L10.1669787,14.8668085 L14.8428298,5.68295745 L14.8428298,17.2646809 L17.9121064,17.2646809 L17.9121064,0.479574468 L14.2673404,0.479574468 L8.99202128,11.1261277 L3.64476596,0.479574468 L2.22535938e-13,0.479574468 L2.22535938e-13,17.2646809 L3.0692766,17.2646809 Z M25.9014255,17.5524255 C26.8605745,17.5524255 27.7198121,17.3765816 28.4791383,17.0248936 C29.2384645,16.6732057 29.8778972,16.1896348 30.3974362,15.5741809 C30.9169752,14.958727 31.2886454,14.2753333 31.5124468,13.524 L31.5124468,13.524 L28.3952128,13.524 C28.1873972,13.9716028 27.8716773,14.3352801 27.4480532,14.6150319 C27.0244291,14.8947837 26.5008936,15.0346596 25.8774468,15.0346596 C25.0461844,15.0346596 24.3388121,14.7708936 23.7553298,14.2433617 C23.1718475,13.7158298 22.8481348,12.9884752 22.7841915,12.0612979 L22.7841915,12.0612979 L31.8241702,12.0612979 C31.840156,11.8534823 31.8521454,11.6536596 31.8601383,11.4618298 C31.8681312,11.27 31.8721277,11.0861631 31.8721277,10.9103191 C31.8721277,9.82328369 31.6203511,8.83615957 31.1167979,7.94894681 C30.6132447,7.06173404 29.9138652,6.36235461 29.0186596,5.85080851 C28.1234539,5.33926241 27.0923688,5.08348936 25.9254043,5.08348936 C24.6785106,5.08348936 23.5954716,5.35125177 22.6762872,5.8867766 C21.7571028,6.42230142 21.0377411,7.1696383 20.5182021,8.12878723 C19.9986631,9.08793617 19.7388936,10.1829645 19.7388936,11.4138723 C19.7388936,12.6287943 20.0026596,13.699844 20.5301915,14.6270213 C21.0577234,15.5541986 21.785078,16.2735603 22.7122553,16.7851064 C23.6394326,17.2966525 24.7024894,17.5524255 25.9014255,17.5524255 Z M28.7548936,10.143 L22.8321489,10.143 C22.9920071,9.27976596 23.3596809,8.63633688 23.9351702,8.21271277 C24.5106596,7.78908865 25.1740709,7.5772766 25.9254043,7.5772766 C26.7087092,7.5772766 27.3641277,7.80907092 27.8916596,8.27265957 C28.4191915,8.73624823 28.7069362,9.35969504 28.7548936,10.143 L28.7548936,10.143 Z M36.552383,17.2646809 L36.552383,11.1261277 C36.552383,10.0390922 36.8041596,9.19184397 37.3077128,8.58438298 C37.811266,7.97692199 38.4706809,7.67319149 39.2859574,7.67319149 C40.1172199,7.67319149 40.7326738,7.94495035 41.1323191,8.48846809 C41.5319645,9.03198582 41.7317872,9.81529078 41.7317872,10.838383 L41.7317872,10.838383 L41.7317872,17.2646809 L44.8010638,17.2646809 L44.8010638,11.1261277 C44.8010638,10.0390922 45.0528404,9.19184397 45.5563936,8.58438298 C46.0599468,7.97692199 46.7273546,7.67319149 47.558617,7.67319149 C48.3738936,7.67319149 48.9773582,7.94495035 49.3690106,8.48846809 C49.7606631,9.03198582 49.9564894,9.81529078 49.9564894,10.838383 L49.9564894,10.838383 L49.9564894,17.2646809 L53.025766,17.2646809 L53.025766,10.5506383 C53.025766,8.76022695 52.6101348,7.40143262 51.7788723,6.47425532 C50.9476099,5.54707801 49.7566667,5.08348936 48.2060426,5.08348936 C47.3428085,5.08348936 46.5475142,5.27531915 45.8201596,5.65897872 C45.092805,6.0426383 44.5133191,6.5621773 44.0817021,7.21759574 C43.314383,5.79485816 42.011539,5.08348936 40.1731702,5.08348936 C39.3419078,5.08348936 38.6105567,5.25533688 37.979117,5.59903191 C37.3476773,5.94272695 36.8401277,6.40231915 36.4564681,6.97780851 L36.4564681,6.97780851 L36.1927021,5.37123404 L33.4831064,5.37123404 L33.4831064,17.2646809 L36.552383,17.2646809 Z M62.0221915,17.5524255 C63.1411986,17.5524255 64.1403121,17.2846631 65.0195319,16.7491383 C65.8987518,16.2136135 66.5941348,15.478266 67.1056809,14.5430957 C67.617227,13.6079255 67.873,12.5408723 67.873,11.3419362 C67.873,10.143 67.617227,9.07195035 67.1056809,8.12878723 C66.5941348,7.18562411 65.8987518,6.44228369 65.0195319,5.89876596 C64.1403121,5.35524823 63.1411986,5.08348936 62.0221915,5.08348936 C61.0150851,5.08348936 60.1958121,5.28331206 59.5643723,5.68295745 C58.9329326,6.08260284 58.425383,6.54619149 58.0417234,7.0737234 L58.0417234,7.0737234 L58.0417234,0 L54.9724468,0 L54.9724468,17.2646809 L57.7060213,17.2646809 L58.0417234,15.6341277 C58.4573546,16.2415887 59.0008723,16.7131702 59.6722766,17.0488723 C60.3436809,17.3845745 61.1269858,17.5524255 62.0221915,17.5524255 Z M61.374766,14.8668085 C60.3836454,14.8668085 59.5723652,14.5351028 58.9409255,13.8716915 C58.3094858,13.2082801 57.993766,12.3570355 57.993766,11.3179574 C57.993766,10.2788794 58.3094858,9.42763475 58.9409255,8.7642234 C59.5723652,8.10081206 60.3836454,7.76910638 61.374766,7.76910638 C62.3499007,7.76910638 63.1571844,8.10480851 63.796617,8.77621277 C64.4360496,9.44761702 64.755766,10.3028582 64.755766,11.3419362 C64.755766,12.3810142 64.4360496,13.2282624 63.796617,13.8836809 C63.1571844,14.5390993 62.3499007,14.8668085 61.374766,14.8668085 Z M75.4067234,17.5524255 C76.3658723,17.5524255 77.2251099,17.3765816 77.9844362,17.0248936 C78.7437624,16.6732057 79.383195,16.1896348 79.902734,15.5741809 C80.422273,14.958727 80.7939433,14.2753333 81.0177447,13.524 L81.0177447,13.524 L77.9005106,13.524 C77.692695,13.9716028 77.3769752,14.3352801 76.9533511,14.6150319 C76.529727,14.8947837 76.0061915,15.0346596 75.3827447,15.0346596 C74.5514823,15.0346596 73.8441099,14.7708936 73.2606277,14.2433617 C72.6771454,13.7158298 72.3534326,12.9884752 72.2894894,12.0612979 L72.2894894,12.0612979 L81.3294681,12.0612979 C81.3454539,11.8534823 81.3574433,11.6536596 81.3654362,11.4618298 C81.3734291,11.27 81.3774255,11.0861631 81.3774255,10.9103191 C81.3774255,9.82328369 81.1256489,8.83615957 80.6220957,7.94894681 C80.1185426,7.06173404 79.4191631,6.36235461 78.5239574,5.85080851 C77.6287518,5.33926241 76.5976667,5.08348936 75.4307021,5.08348936 C74.1838085,5.08348936 73.1007695,5.35125177 72.1815851,5.8867766 C71.2624007,6.42230142 70.543039,7.1696383 70.0235,8.12878723 C69.503961,9.08793617 69.2441915,10.1829645 69.2441915,11.4138723 C69.2441915,12.6287943 69.5079574,13.699844 70.0354894,14.6270213 C70.5630213,15.5541986 71.2903759,16.2735603 72.2175532,16.7851064 C73.1447305,17.2966525 74.2077872,17.5524255 75.4067234,17.5524255 Z M78.2601915,10.143 L72.3374468,10.143 C72.497305,9.27976596 72.8649787,8.63633688 73.4404681,8.21271277 C74.0159574,7.78908865 74.6793688,7.5772766 75.4307021,7.5772766 C76.2140071,7.5772766 76.8694255,7.80907092 77.3969574,8.27265957 C77.9244894,8.73624823 78.212234,9.35969504 78.2601915,10.143 L78.2601915,10.143 Z M86.0576809,17.2646809 L86.0576809,11.8454894 C86.0576809,10.9342979 86.2055496,10.2229291 86.5012872,9.71138298 C86.7970248,9.19983688 87.2086596,8.84015603 87.7361915,8.63234043 C88.2637234,8.42452482 88.8631915,8.32061702 89.5345957,8.32061702 L89.5345957,8.32061702 L90.3978298,8.32061702 L90.3978298,5.08348936 C89.3907234,5.08348936 88.5155,5.31128723 87.7721596,5.76688298 C87.0288191,6.22247872 86.4413404,6.83393617 86.0097234,7.60125532 L86.0097234,7.60125532 L85.7219787,5.37123404 L82.9884043,5.37123404 L82.9884043,17.2646809 L86.0576809,17.2646809 Z M96.4208936,17.5524255 C97.4439858,17.5524255 98.3311986,17.3845745 99.0825319,17.0488723 C99.8338652,16.7131702 100.409355,16.2495816 100.809,15.6581064 C101.208645,15.0666312 101.400475,14.4032199 101.384489,13.6678723 C101.384489,12.8206241 101.176674,12.1692021 100.761043,11.7136064 C100.345411,11.2580106 99.7899043,10.9143156 99.0945213,10.6825213 C98.3991383,10.450727 97.6358156,10.2389149 96.8045532,10.0470851 C96.037234,9.87124113 95.4217801,9.67941135 94.9581915,9.47159574 C94.4946028,9.26378014 94.2628085,8.98402837 94.2628085,8.63234043 C94.2628085,8.2966383 94.4186702,8.01688652 94.7303936,7.79308511 C95.042117,7.56928369 95.4857234,7.45738298 96.0612128,7.45738298 C97.2121915,7.45738298 97.8756028,7.89699291 98.0514468,8.77621277 L98.0514468,8.77621277 L100.952872,8.77621277 C100.793014,7.62523404 100.293457,6.72203546 99.4542021,6.06661702 C98.6149468,5.41119858 97.4919433,5.08348936 96.0851915,5.08348936 C94.566539,5.08348936 93.3875851,5.44317021 92.5483298,6.16253191 C91.7090745,6.88189362 91.2894468,7.76910638 91.2894468,8.82417021 C91.2894468,9.39965957 91.4253262,9.8832305 91.6970851,10.274883 C91.968844,10.6665355 92.3245284,10.9862518 92.7641383,11.2340319 C93.2037482,11.4818121 93.6873191,11.6856312 94.2148511,11.8454894 C94.742383,12.0053475 95.261922,12.141227 95.7734681,12.2531277 C96.5727589,12.4289716 97.1962057,12.6088121 97.6438085,12.7926489 C98.0914113,12.9764858 98.3152128,13.3241773 98.3152128,13.8357234 C98.3152128,14.1874113 98.1593511,14.4991348 97.8476277,14.7708936 C97.5359043,15.0426525 97.0443404,15.1785319 96.3729362,15.1785319 C95.7015319,15.1785319 95.1540177,15.0146773 94.7303936,14.6869681 C94.3067695,14.3592589 94.047,13.9636099 93.9510851,13.5000213 L93.9510851,13.5000213 L90.8578298,13.5000213 C90.9537447,14.2993121 91.2414894,15.0026879 91.7210638,15.6101489 C92.2006383,16.2176099 92.8400709,16.6931879 93.6393617,17.036883 C94.4386525,17.380578 95.3658298,17.5524255 96.4208936,17.5524255 Z M106.184638,17.2646809 L106.184638,11.1261277 C106.184638,10.0390922 106.468387,9.19184397 107.035883,8.58438298 C107.603379,7.97692199 108.318745,7.67319149 109.181979,7.67319149 C110.061199,7.67319149 110.704628,7.94495035 111.112266,8.48846809 C111.519904,9.03198582 111.723723,9.81529078 111.723723,10.838383 L111.723723,10.838383 L111.723723,17.2646809 L114.769021,17.2646809 L114.769021,10.5506383 C114.769021,8.76022695 114.365379,7.40143262 113.558096,6.47425532 C112.750812,5.54707801 111.611823,5.08348936 110.141128,5.08348936 C109.261908,5.08348936 108.482599,5.2713227 107.803202,5.64698936 C107.123805,6.02265603 106.584284,6.53819858 106.184638,7.19361702 L106.184638,7.19361702 L106.184638,0 L103.115362,0 L103.115362,17.2646809 L106.184638,17.2646809 Z M118.370234,3.52487234 C118.929738,3.52487234 119.38933,3.35702128 119.749011,3.02131915 C120.108691,2.68561702 120.288532,2.26199291 120.288532,1.75044681 C120.288532,1.23890071 120.108691,0.81927305 119.749011,0.49156383 C119.38933,0.16385461 118.929738,0 118.370234,0 C117.81073,0 117.351138,0.16385461 116.991457,0.49156383 C116.631777,0.81927305 116.451936,1.23890071 116.451936,1.75044681 C116.451936,2.26199291 116.631777,2.68561702 116.991457,3.02131915 C117.351138,3.35702128 117.81073,3.52487234 118.370234,3.52487234 Z M119.904872,17.2646809 L119.904872,5.37123404 L116.835596,5.37123404 L116.835596,17.2646809 L119.904872,17.2646809 Z M125.208574,22.54 L125.208574,15.6341277 C125.624206,16.2415887 126.167723,16.7131702 126.839128,17.0488723 C127.510532,17.3845745 128.293837,17.5524255 129.189043,17.5524255 C130.30805,17.5524255 131.307163,17.2846631 132.186383,16.7491383 C133.065603,16.2136135 133.760986,15.478266 134.272532,14.5430957 C134.784078,13.6079255 135.039851,12.5408723 135.039851,11.3419362 C135.039851,10.143 134.784078,9.07195035 134.272532,8.12878723 C133.760986,7.18562411 133.065603,6.44228369 132.186383,5.89876596 C131.307163,5.35524823 130.30805,5.08348936 129.189043,5.08348936 C128.181936,5.08348936 127.362663,5.28331206 126.731223,5.68295745 C126.099784,6.08260284 125.592234,6.54619149 125.208574,7.0737234 L125.208574,7.0737234 L124.872872,5.37123404 L122.139298,5.37123404 L122.139298,22.54 L125.208574,22.54 Z M128.541617,14.8668085 C127.550496,14.8668085 126.739216,14.5351028 126.107777,13.8716915 C125.476337,13.2082801 125.160617,12.3570355 125.160617,11.3179574 C125.160617,10.2788794 125.476337,9.42763475 126.107777,8.7642234 C126.739216,8.10081206 127.550496,7.76910638 128.541617,7.76910638 C129.516752,7.76910638 130.324035,8.10480851 130.963468,8.77621277 C131.602901,9.44761702 131.922617,10.3028582 131.922617,11.3419362 C131.922617,12.3810142 131.602901,13.2282624 130.963468,13.8836809 C130.324035,14.5390993 129.516752,14.8668085 128.541617,14.8668085 Z" id="Membership"></path>
            </g>
            <g id="Group-22" transform="translate(8.000000, 9.000000) scale(-1, 1) translate(-8.000000, -9.000000) translate(0.000000, 1.000000)">
                <rect id="Rectangle" fill="#3563F4" x="0" y="0" width="7.05882353" height="7.05882353" rx="1.41176471"></rect>
                <rect id="Rectangle-Copy-5" fill="#D4E0FF" x="8.94117647" y="0" width="7.05882353" height="7.05882353" rx="1.41176471"></rect>
                <rect id="Rectangle-Copy-4" fill="#904AE8" x="0" y="8.94117647" width="7.05882353" height="7.05882353" rx="1.41176471"></rect>
                <rect id="Rectangle-Copy-6" fill="#E2CDFF" x="8.94117647" y="8.94117647" width="7.05882353" height="7.05882353" rx="1.41176471"></rect>
            </g>
        </g>
    </g>
</svg>