<?xml version="1.0" encoding="UTF-8"?>
<svg width="332px" height="44px" viewBox="0 0 332 44" version="1.1" xmlns="http://www.w3.org/2000/svg" xmlns:xlink="http://www.w3.org/1999/xlink">
    <!-- Generator: Sketch 63.1 (92452) - https://sketch.com -->
    <title>Memberspace-Logo</title>
    <desc>Created with Sketch.</desc>
    <g id="Website" stroke="none" stroke-width="1" fill="none" fill-rule="evenodd">
        <g id="Memberspace-Logo" transform="translate(2.000000, 0.000000)">
            <path d="M11.4,4.7 L24.3,23.1 C26.4,26 31.3,23.2 29.2,20.3 L16.2,1.9 C14.1,-1.1 9.3,1.8 11.4,4.7 L11.4,4.7 Z" id="Path" fill="#333333" fill-rule="nonzero"></path>
            <path d="M37.2,1.9 L24.2,20.3 C22.1,23.3 27,26.1 29.1,23.1 L42,4.7 C44.1,1.7 39.2,-1.1 37.2,1.9 L37.2,1.9 Z" id="Path" fill="#333333" fill-rule="nonzero"></path>
            <path d="M40.1,28.6 C40.1,28.6 36.9,36.1 26.7,36 L26.7,36 C16.6,36.2 13.3,28.6 13.3,28.6" id="Path" stroke="#C63982" stroke-width="4"></path>
            <line x1="0.6" y1="34.3" x2="13.5" y2="3.4" id="Path" stroke="#333333" stroke-width="5.25"></line>
            <line x1="52.7" y1="34.3" x2="39.9" y2="3.3" id="Path" stroke="#333333" stroke-width="5.25"></line>
            <path d="M81.5,24.7 L64.5,24.7 C65.3,28.5 67.9,30.8 71.5,30.8 C73.9,30.8 76.2,29.8 77.8,27.9 L80.4,30.9 C78.2,33.5 75,35 71.1,35 C64.2,35 59.6,30 59.6,22.6 C59.6,15.2 64.3,10.2 71,10.1 C78.9,10.3 82.1,15.9 81.5,24.7 Z M77.3,20.8 C77.1,16.8 74.7,14.4 71.1,14.4 C67.6,14.4 65,16.8 64.5,20.8 L77.3,20.8 Z" id="Shape" fill="#333333" fill-rule="nonzero"></path>
            <path d="M124.9,19.7 L124.9,34.9 L120,34.9 L120,21.2 C120,17.5 118,15.2 114.7,15.2 C110.9,15.3 108.5,18.6 108.5,22.8 L108.5,34.9 L103.6,34.9 L103.6,21.2 C103.6,17.5 101.6,15.2 98.3,15.2 C94.4,15.3 92.1,18.6 92.1,22.8 L92.1,34.9 L87.3,34.9 L87.3,10.4 L92.1,10.4 L92.1,15.1 C93.7,11.6 96.5,10.2 100.2,10.2 C104.2,10.2 107,12.4 108,16.1 C109.4,12 112.4,10.2 116.5,10.2 C121.8,10.3 124.9,13.9 124.9,19.7 Z" id="Path" fill="#333333" fill-rule="nonzero"></path>
            <path d="M155.9,22.8 C155.9,30.1 151.7,35.1 145.3,35.1 C141.7,35.1 139,33.5 137.4,30.7 L137.4,34.9 L132.5,34.9 L132.5,0.8 L137.4,0.8 L137.4,14.7 C139,11.8 141.7,10.3 145.3,10.3 C151.5,10.3 155.9,15.3 155.9,22.8 Z M151,22.6 C151,18 148.2,14.7 144.2,14.7 C140.2,14.7 137.4,18 137.4,22.6 C137.4,27.3 140.2,30.6 144.2,30.6 C148.1,30.6 151,27.3 151,22.6 Z" id="Shape" fill="#333333" fill-rule="nonzero"></path>
            <path d="M181.5,24.7 L164.5,24.7 C165.3,28.5 167.9,30.8 171.5,30.8 C173.9,30.8 176.2,29.8 177.8,27.9 L180.4,30.9 C178.2,33.5 175,35 171.1,35 C164.2,35 159.6,30 159.6,22.6 C159.6,15.2 164.3,10.2 171,10.1 C178.9,10.3 182.1,15.9 181.5,24.7 Z M177.3,20.8 C177.1,16.8 174.7,14.4 171.1,14.4 C167.6,14.4 165,16.8 164.5,20.8 L177.3,20.8 Z" id="Shape" fill="#333333" fill-rule="nonzero"></path>
            <path d="M200,10.3 L200,15.4 C195.5,15.1 192.6,18 192.2,22.2 L192.2,35 L187.3,35 L187.3,10.4 L192.2,10.4 L192.2,15.3 C193.7,12 196.4,10.3 200,10.3 Z" id="Path" fill="#333333" fill-rule="nonzero"></path>
            <path d="M214.4,7.6 C211.5,7.6 209.6,8.8 209.6,11 C209.6,18 225.6,14.3 225.5,25.9 C225.5,31.7 220.9,35.2 214.4,35.2 C209.8,35.2 205.4,33.1 202.3,30.1 L204.5,25.4 C207.5,28.4 211.3,30.1 214.5,30.1 C218,30.1 220,28.7 220,26.2 C220,19 204,23 204,11.6 C204,6.1 208.3,2.6 214.8,2.6 C218.6,2.6 222.4,3.9 225.1,5.9 L223,10.7 C219.9,8.5 216.7,7.6 214.4,7.6 Z" id="Path" fill="#333333" fill-rule="nonzero"></path>
            <path d="M255.5,22.8 C255.5,30.1 251.3,35.1 244.9,35.1 C241.3,35.1 238.6,33.5 237,30.7 L237,43.9 L232.1,43.9 L232.1,10.4 L237,10.4 L237,14.6 C238.6,11.7 241.3,10.2 244.9,10.2 C251.2,10.3 255.5,15.3 255.5,22.8 Z M250.6,22.6 C250.6,18 247.8,14.7 243.8,14.7 C239.8,14.7 237,18 237,22.6 C237,27.3 239.8,30.6 243.8,30.6 C247.8,30.6 250.6,27.3 250.6,22.6 Z" id="Shape" fill="#333333" fill-rule="nonzero"></path>
            <path d="M274.8,34.9 L274.8,31.9 C273.2,34.1 270.6,35.1 267.4,35.1 C262.5,35.1 259.5,31.8 259.5,27.5 C259.5,23 262.6,20.2 268,20.1 L274.8,20.1 L274.8,19.4 C274.8,16.3 273,14.5 269.4,14.5 C267.2,14.5 265,15.3 262.8,17 L260.8,13.3 C263.9,11.3 266.2,10.2 270.5,10.2 C276.3,10.2 279.5,13.4 279.6,18.8 L279.6,34.9 L274.8,34.9 Z M274.8,26.3 L274.8,24 L268.7,24 C265.5,24 264.1,24.9 264.1,27.3 C264.1,29.5 265.7,30.9 268.4,30.9 C271.9,31 274.5,29 274.8,26.3 Z" id="Shape" fill="#333333" fill-rule="nonzero"></path>
            <path d="M295.3,14.9 C291.4,14.9 288.6,18.1 288.6,22.7 C288.6,27.3 291.4,30.5 295.3,30.5 C298.1,30.5 300.4,29.5 301.9,27.6 L304.6,30.5 C302.6,33.4 299.3,35.1 295.1,35.1 C288.4,35.1 283.8,30.1 283.8,22.7 C283.8,15.3 288.4,10.2 295.1,10.2 C299.2,10.2 302.3,11.6 304.4,14.2 L301.7,17.6 C300.2,15.9 298,14.9 295.3,14.9 Z" id="Path" fill="#333333" fill-rule="nonzero"></path>
            <path d="M329.3,24.7 L312.3,24.7 C313.1,28.5 315.7,30.8 319.3,30.8 C321.7,30.8 324,29.8 325.6,27.9 L328.2,30.9 C326,33.5 322.8,35 318.9,35 C312,35 307.4,30 307.4,22.6 C307.4,15.2 312.1,10.2 318.8,10.1 C326.7,10.3 329.9,15.9 329.3,24.7 Z M325.1,20.8 C324.9,16.8 322.5,14.4 318.9,14.4 C315.4,14.4 312.8,16.8 312.3,20.8 L325.1,20.8 Z" id="Shape" fill="#333333" fill-rule="nonzero"></path>
        </g>
    </g>
</svg>