<?xml version="1.0" encoding="UTF-8"?>
<svg width="126px" height="82px" viewBox="0 0 126 82" version="1.1" xmlns="http://www.w3.org/2000/svg" xmlns:xlink="http://www.w3.org/1999/xlink">
    <!-- Generator: Sketch 63.1 (92452) - https://sketch.com -->
    <title>Artboard</title>
    <desc>Created with Sketch.</desc>
    <g id="Artboard" stroke="none" stroke-width="1" fill="none" fill-rule="evenodd">
        <g id="logo" transform="translate(6.000000, 0.000000)">
            <path d="M23.7380009,9.19900036 L51.7310019,49.1270018 C56.288002,55.420002 66.9210024,49.3440018 62.3640022,43.0510015 L34.1540012,3.12300014 C29.5970011,-3.38700008 19.1810007,2.90600014 23.7380009,9.19900036 L23.7380009,9.19900036 Z" id="Path" fill="#333333" fill-rule="nonzero"></path>
            <path d="M79.7240028,3.12300014 L51.5140018,43.0510015 C46.9570017,49.5610018 57.5900021,55.637002 62.1470022,49.1270018 L90.1400032,9.19900036 C94.6970034,2.68900013 84.064003,-3.38700008 79.7240028,3.12300014 L79.7240028,3.12300014 Z" id="Path" fill="#333333" fill-rule="nonzero"></path>
            <path d="M86.0170031,61.0620022 C86.0170031,61.0620022 79.0730028,77.3370028 56.939002,77.1200027 L56.939002,77.1200027 C35.0220013,77.5540028 27.861001,61.0620022 27.861001,61.0620022" id="Path" stroke="#C63982" stroke-width="8.68000031"></path>
            <line x1="0.302000046" y1="73.4310026" x2="28.295001" y2="6.37800026" id="Path" stroke="#333333" stroke-width="11.3925004"></line>
            <line x1="113.359004" y1="73.4310026" x2="85.583003" y2="6.16100025" id="Path" stroke="#333333" stroke-width="11.3925004"></line>
        </g>
    </g>
</svg>