<svg xmlns="http://www.w3.org/2000/svg" width="125.045" height="135.703" viewBox="0 0 125.045 135.703">
  <g id="dots" transform="translate(-999.756 -2286.945)">
    <g id="Dot_Pattern_1" data-name="Dot Pattern 1" transform="translate(999.756 2286.945)" opacity="0.12">
      <path id="Fill_1" data-name="Fill 1" d="M4.263,2.131A2.131,2.131,0,1,1,2.131,0,2.131,2.131,0,0,1,4.263,2.131" fill="#00214d"/>
      <path id="Fill_4" data-name="Fill 4" d="M4.263,2.131A2.131,2.131,0,1,1,2.131,0,2.131,2.131,0,0,1,4.263,2.131" transform="translate(0 10.657)" fill="#00214d"/>
      <path id="Fill_5" data-name="Fill 5" d="M4.263,2.131A2.131,2.131,0,1,1,2.131,0,2.131,2.131,0,0,1,4.263,2.131" transform="translate(11.368 10.657)" fill="#00214d"/>
      <path id="Fill_6" data-name="Fill 6" d="M4.263,2.131A2.131,2.131,0,1,1,2.131,0,2.131,2.131,0,0,1,4.263,2.131" transform="translate(22.025 10.657)" fill="#00214d"/>
      <path id="Fill_7" data-name="Fill 7" d="M4.263,2.131A2.131,2.131,0,1,1,2.131,0,2.131,2.131,0,0,1,4.263,2.131" transform="translate(32.682 10.657)" fill="#00214d"/>
      <path id="Fill_8" data-name="Fill 8" d="M4.263,2.131A2.131,2.131,0,1,1,2.131,0,2.131,2.131,0,0,1,4.263,2.131" transform="translate(44.05 10.657)" fill="#00214d"/>
      <path id="Fill_9" data-name="Fill 9" d="M4.263,2.131A2.131,2.131,0,1,1,2.131,0,2.131,2.131,0,0,1,4.263,2.131" transform="translate(54.707 10.657)" fill="#00214d"/>
      <path id="Fill_10" data-name="Fill 10" d="M4.263,2.131A2.131,2.131,0,1,1,2.131,0,2.131,2.131,0,0,1,4.263,2.131" transform="translate(66.075 10.657)" fill="#00214d"/>
      <path id="Fill_11" data-name="Fill 11" d="M4.263,2.131A2.131,2.131,0,1,1,2.131,0,2.131,2.131,0,0,1,4.263,2.131" transform="translate(76.732 10.657)" fill="#00214d"/>
      <path id="Fill_12" data-name="Fill 12" d="M4.263,2.131A2.131,2.131,0,1,1,2.131,0,2.131,2.131,0,0,1,4.263,2.131" transform="translate(88.1 10.657)" fill="#00214d"/>
      <path id="Fill_13" data-name="Fill 13" d="M4.263,2.131A2.131,2.131,0,1,1,2.131,0,2.131,2.131,0,0,1,4.263,2.131" transform="translate(98.757 10.657)" fill="#00214d"/>
      <path id="Fill_14" data-name="Fill 14" d="M4.263,2.131A2.131,2.131,0,1,1,2.131,0,2.131,2.131,0,0,1,4.263,2.131" transform="translate(109.415 10.657)" fill="#00214d"/>
      <path id="Fill_15" data-name="Fill 15" d="M4.263,2.131A2.131,2.131,0,1,1,2.131,0,2.131,2.131,0,0,1,4.263,2.131" transform="translate(120.782 10.657)" fill="#00214d"/>
      <path id="Fill_34" data-name="Fill 34" d="M4.263,2.131A2.131,2.131,0,1,1,2.131,0,2.131,2.131,0,0,1,4.263,2.131" transform="translate(0 22.025)" fill="#00214d"/>
      <path id="Fill_35" data-name="Fill 35" d="M4.263,2.131A2.131,2.131,0,1,1,2.131,0,2.131,2.131,0,0,1,4.263,2.131" transform="translate(11.368 22.025)" fill="#00214d"/>
      <path id="Fill_36" data-name="Fill 36" d="M4.263,2.131A2.131,2.131,0,1,1,2.131,0,2.131,2.131,0,0,1,4.263,2.131" transform="translate(22.025 22.025)" fill="#00214d"/>
      <path id="Fill_37" data-name="Fill 37" d="M4.263,2.131A2.131,2.131,0,1,1,2.131,0,2.131,2.131,0,0,1,4.263,2.131" transform="translate(32.682 22.025)" fill="#00214d"/>
      <path id="Fill_38" data-name="Fill 38" d="M4.263,2.131A2.131,2.131,0,1,1,2.131,0,2.131,2.131,0,0,1,4.263,2.131" transform="translate(44.05 22.025)" fill="#00214d"/>
      <path id="Fill_39" data-name="Fill 39" d="M4.263,2.131A2.131,2.131,0,1,1,2.131,0,2.131,2.131,0,0,1,4.263,2.131" transform="translate(54.707 22.025)" fill="#00214d"/>
      <path id="Fill_40" data-name="Fill 40" d="M4.263,2.131A2.131,2.131,0,1,1,2.131,0,2.131,2.131,0,0,1,4.263,2.131" transform="translate(66.075 22.025)" fill="#00214d"/>
      <path id="Fill_41" data-name="Fill 41" d="M4.263,2.131A2.131,2.131,0,1,1,2.131,0,2.131,2.131,0,0,1,4.263,2.131" transform="translate(76.732 22.025)" fill="#00214d"/>
      <path id="Fill_42" data-name="Fill 42" d="M4.263,2.131A2.131,2.131,0,1,1,2.131,0,2.131,2.131,0,0,1,4.263,2.131" transform="translate(88.1 22.025)" fill="#00214d"/>
      <path id="Fill_43" data-name="Fill 43" d="M4.263,2.131A2.131,2.131,0,1,1,2.131,0,2.131,2.131,0,0,1,4.263,2.131" transform="translate(98.757 22.025)" fill="#00214d"/>
      <path id="Fill_44" data-name="Fill 44" d="M4.263,2.131A2.131,2.131,0,1,1,2.131,0,2.131,2.131,0,0,1,4.263,2.131" transform="translate(109.415 22.025)" fill="#00214d"/>
      <path id="Fill_45" data-name="Fill 45" d="M4.263,2.131A2.131,2.131,0,1,1,2.131,0,2.131,2.131,0,0,1,4.263,2.131" transform="translate(120.782 22.025)" fill="#00214d"/>
      <path id="Fill_64" data-name="Fill 64" d="M4.263,2.131A2.131,2.131,0,1,1,2.131,0,2.131,2.131,0,0,1,4.263,2.131" transform="translate(0 32.682)" fill="#00214d"/>
      <path id="Fill_65" data-name="Fill 65" d="M4.263,2.131A2.131,2.131,0,1,1,2.131,0,2.131,2.131,0,0,1,4.263,2.131" transform="translate(11.368 32.682)" fill="#00214d"/>
      <path id="Fill_66" data-name="Fill 66" d="M4.263,2.131A2.131,2.131,0,1,1,2.131,0,2.131,2.131,0,0,1,4.263,2.131" transform="translate(22.025 32.682)" fill="#00214d"/>
      <path id="Fill_67" data-name="Fill 67" d="M4.263,2.131A2.131,2.131,0,1,1,2.131,0,2.131,2.131,0,0,1,4.263,2.131" transform="translate(32.682 32.682)" fill="#00214d"/>
      <path id="Fill_68" data-name="Fill 68" d="M4.263,2.131A2.131,2.131,0,1,1,2.131,0,2.131,2.131,0,0,1,4.263,2.131" transform="translate(44.05 32.682)" fill="#00214d"/>
      <path id="Fill_69" data-name="Fill 69" d="M4.263,2.131A2.131,2.131,0,1,1,2.131,0,2.131,2.131,0,0,1,4.263,2.131" transform="translate(54.707 32.682)" fill="#00214d"/>
      <path id="Fill_70" data-name="Fill 70" d="M4.263,2.131A2.131,2.131,0,1,1,2.131,0,2.131,2.131,0,0,1,4.263,2.131" transform="translate(66.075 32.682)" fill="#00214d"/>
      <path id="Fill_71" data-name="Fill 71" d="M4.263,2.131A2.131,2.131,0,1,1,2.131,0,2.131,2.131,0,0,1,4.263,2.131" transform="translate(76.732 32.682)" fill="#00214d"/>
      <path id="Fill_72" data-name="Fill 72" d="M4.263,2.131A2.131,2.131,0,1,1,2.131,0,2.131,2.131,0,0,1,4.263,2.131" transform="translate(88.1 32.682)" fill="#00214d"/>
      <path id="Fill_73" data-name="Fill 73" d="M4.263,2.131A2.131,2.131,0,1,1,2.131,0,2.131,2.131,0,0,1,4.263,2.131" transform="translate(98.757 32.682)" fill="#00214d"/>
      <path id="Fill_74" data-name="Fill 74" d="M4.263,2.131A2.131,2.131,0,1,1,2.131,0,2.131,2.131,0,0,1,4.263,2.131" transform="translate(109.415 32.682)" fill="#00214d"/>
      <path id="Fill_75" data-name="Fill 75" d="M4.263,2.131A2.131,2.131,0,1,1,2.131,0,2.131,2.131,0,0,1,4.263,2.131" transform="translate(120.782 32.682)" fill="#00214d"/>
      <path id="Fill_94" data-name="Fill 94" d="M4.263,2.131A2.131,2.131,0,1,1,2.131,0,2.131,2.131,0,0,1,4.263,2.131" transform="translate(0 44.05)" fill="#00214d"/>
      <path id="Fill_95" data-name="Fill 95" d="M4.263,2.131A2.131,2.131,0,1,1,2.131,0,2.131,2.131,0,0,1,4.263,2.131" transform="translate(11.368 44.05)" fill="#00214d"/>
      <path id="Fill_96" data-name="Fill 96" d="M4.263,2.131A2.131,2.131,0,1,1,2.131,0,2.131,2.131,0,0,1,4.263,2.131" transform="translate(22.025 44.05)" fill="#00214d"/>
      <path id="Fill_97" data-name="Fill 97" d="M4.263,2.131A2.131,2.131,0,1,1,2.131,0,2.131,2.131,0,0,1,4.263,2.131" transform="translate(32.682 44.05)" fill="#00214d"/>
      <path id="Fill_98" data-name="Fill 98" d="M4.263,2.131A2.131,2.131,0,1,1,2.131,0,2.131,2.131,0,0,1,4.263,2.131" transform="translate(44.05 44.05)" fill="#00214d"/>
      <path id="Fill_99" data-name="Fill 99" d="M4.263,2.131A2.131,2.131,0,1,1,2.131,0,2.131,2.131,0,0,1,4.263,2.131" transform="translate(54.707 44.05)" fill="#00214d"/>
      <path id="Fill_100" data-name="Fill 100" d="M4.263,2.131A2.131,2.131,0,1,1,2.131,0,2.131,2.131,0,0,1,4.263,2.131" transform="translate(66.075 44.05)" fill="#00214d"/>
      <path id="Fill_101" data-name="Fill 101" d="M4.263,2.131A2.131,2.131,0,1,1,2.131,0,2.131,2.131,0,0,1,4.263,2.131" transform="translate(76.732 44.05)" fill="#00214d"/>
      <path id="Fill_102" data-name="Fill 102" d="M4.263,2.131A2.131,2.131,0,1,1,2.131,0,2.131,2.131,0,0,1,4.263,2.131" transform="translate(88.1 44.05)" fill="#00214d"/>
      <path id="Fill_103" data-name="Fill 103" d="M4.263,2.131A2.131,2.131,0,1,1,2.131,0,2.131,2.131,0,0,1,4.263,2.131" transform="translate(98.757 44.05)" fill="#00214d"/>
      <path id="Fill_104" data-name="Fill 104" d="M4.263,2.131A2.131,2.131,0,1,1,2.131,0,2.131,2.131,0,0,1,4.263,2.131" transform="translate(109.415 44.05)" fill="#00214d"/>
      <path id="Fill_105" data-name="Fill 105" d="M4.263,2.131A2.131,2.131,0,1,1,2.131,0,2.131,2.131,0,0,1,4.263,2.131" transform="translate(120.782 44.05)" fill="#00214d"/>
      <path id="Fill_124" data-name="Fill 124" d="M4.263,2.131A2.131,2.131,0,1,1,2.131,0,2.131,2.131,0,0,1,4.263,2.131" transform="translate(0 54.707)" fill="#00214d"/>
      <path id="Fill_125" data-name="Fill 125" d="M4.263,2.131A2.131,2.131,0,1,1,2.131,0,2.131,2.131,0,0,1,4.263,2.131" transform="translate(11.368 54.707)" fill="#00214d"/>
      <path id="Fill_126" data-name="Fill 126" d="M4.263,2.131A2.131,2.131,0,1,1,2.131,0,2.131,2.131,0,0,1,4.263,2.131" transform="translate(22.025 54.707)" fill="#00214d"/>
      <path id="Fill_127" data-name="Fill 127" d="M4.263,2.131A2.131,2.131,0,1,1,2.131,0,2.131,2.131,0,0,1,4.263,2.131" transform="translate(32.682 54.707)" fill="#00214d"/>
      <path id="Fill_128" data-name="Fill 128" d="M4.263,2.131A2.131,2.131,0,1,1,2.131,0,2.131,2.131,0,0,1,4.263,2.131" transform="translate(44.05 54.707)" fill="#00214d"/>
      <path id="Fill_129" data-name="Fill 129" d="M4.263,2.131A2.131,2.131,0,1,1,2.131,0,2.131,2.131,0,0,1,4.263,2.131" transform="translate(54.707 54.707)" fill="#00214d"/>
      <path id="Fill_130" data-name="Fill 130" d="M4.263,2.131A2.131,2.131,0,1,1,2.131,0,2.131,2.131,0,0,1,4.263,2.131" transform="translate(66.075 54.707)" fill="#00214d"/>
      <path id="Fill_131" data-name="Fill 131" d="M4.263,2.131A2.131,2.131,0,1,1,2.131,0,2.131,2.131,0,0,1,4.263,2.131" transform="translate(76.732 54.707)" fill="#00214d"/>
      <path id="Fill_132" data-name="Fill 132" d="M4.263,2.131A2.131,2.131,0,1,1,2.131,0,2.131,2.131,0,0,1,4.263,2.131" transform="translate(88.1 54.707)" fill="#00214d"/>
      <path id="Fill_133" data-name="Fill 133" d="M4.263,2.131A2.131,2.131,0,1,1,2.131,0,2.131,2.131,0,0,1,4.263,2.131" transform="translate(98.757 54.707)" fill="#00214d"/>
      <path id="Fill_134" data-name="Fill 134" d="M4.263,2.131A2.131,2.131,0,1,1,2.131,0,2.131,2.131,0,0,1,4.263,2.131" transform="translate(109.415 54.707)" fill="#00214d"/>
      <path id="Fill_135" data-name="Fill 135" d="M4.263,2.131A2.131,2.131,0,1,1,2.131,0,2.131,2.131,0,0,1,4.263,2.131" transform="translate(120.782 54.707)" fill="#00214d"/>
      <path id="Fill_154" data-name="Fill 154" d="M4.263,2.131A2.131,2.131,0,1,1,2.131,0,2.131,2.131,0,0,1,4.263,2.131" transform="translate(0 66.075)" fill="#00214d"/>
      <path id="Fill_155" data-name="Fill 155" d="M4.263,2.131A2.131,2.131,0,1,1,2.131,0,2.131,2.131,0,0,1,4.263,2.131" transform="translate(11.368 66.075)" fill="#00214d"/>
      <path id="Fill_156" data-name="Fill 156" d="M4.263,2.131A2.131,2.131,0,1,1,2.131,0,2.131,2.131,0,0,1,4.263,2.131" transform="translate(22.025 66.075)" fill="#00214d"/>
      <path id="Fill_157" data-name="Fill 157" d="M4.263,2.131A2.131,2.131,0,1,1,2.131,0,2.131,2.131,0,0,1,4.263,2.131" transform="translate(32.682 66.075)" fill="#00214d"/>
      <path id="Fill_158" data-name="Fill 158" d="M4.263,2.131A2.131,2.131,0,1,1,2.131,0,2.131,2.131,0,0,1,4.263,2.131" transform="translate(44.05 66.075)" fill="#00214d"/>
      <path id="Fill_159" data-name="Fill 159" d="M4.263,2.131A2.131,2.131,0,1,1,2.131,0,2.131,2.131,0,0,1,4.263,2.131" transform="translate(54.707 66.075)" fill="#00214d"/>
      <path id="Fill_160" data-name="Fill 160" d="M4.263,2.131A2.131,2.131,0,1,1,2.131,0,2.131,2.131,0,0,1,4.263,2.131" transform="translate(66.075 66.075)" fill="#00214d"/>
      <path id="Fill_161" data-name="Fill 161" d="M4.263,2.131A2.131,2.131,0,1,1,2.131,0,2.131,2.131,0,0,1,4.263,2.131" transform="translate(76.732 66.075)" fill="#00214d"/>
      <path id="Fill_162" data-name="Fill 162" d="M4.263,2.131A2.131,2.131,0,1,1,2.131,0,2.131,2.131,0,0,1,4.263,2.131" transform="translate(88.1 66.075)" fill="#00214d"/>
      <path id="Fill_163" data-name="Fill 163" d="M4.263,2.131A2.131,2.131,0,1,1,2.131,0,2.131,2.131,0,0,1,4.263,2.131" transform="translate(98.757 66.075)" fill="#00214d"/>
      <path id="Fill_164" data-name="Fill 164" d="M4.263,2.131A2.131,2.131,0,1,1,2.131,0,2.131,2.131,0,0,1,4.263,2.131" transform="translate(109.415 66.075)" fill="#00214d"/>
      <path id="Fill_165" data-name="Fill 165" d="M4.263,2.131A2.131,2.131,0,1,1,2.131,0,2.131,2.131,0,0,1,4.263,2.131" transform="translate(120.782 66.075)" fill="#00214d"/>
      <path id="Fill_184" data-name="Fill 184" d="M4.263,2.131A2.131,2.131,0,1,1,2.131,0,2.131,2.131,0,0,1,4.263,2.131" transform="translate(0 76.732)" fill="#00214d"/>
      <path id="Fill_185" data-name="Fill 185" d="M4.263,2.131A2.131,2.131,0,1,1,2.131,0,2.131,2.131,0,0,1,4.263,2.131" transform="translate(11.368 76.732)" fill="#00214d"/>
      <path id="Fill_186" data-name="Fill 186" d="M4.263,2.131A2.131,2.131,0,1,1,2.131,0,2.131,2.131,0,0,1,4.263,2.131" transform="translate(22.025 76.732)" fill="#00214d"/>
      <path id="Fill_187" data-name="Fill 187" d="M4.263,2.131A2.131,2.131,0,1,1,2.131,0,2.131,2.131,0,0,1,4.263,2.131" transform="translate(32.682 76.732)" fill="#00214d"/>
      <path id="Fill_188" data-name="Fill 188" d="M4.263,2.131A2.131,2.131,0,1,1,2.131,0,2.131,2.131,0,0,1,4.263,2.131" transform="translate(44.05 76.732)" fill="#00214d"/>
      <path id="Fill_189" data-name="Fill 189" d="M4.263,2.131A2.131,2.131,0,1,1,2.131,0,2.131,2.131,0,0,1,4.263,2.131" transform="translate(54.707 76.732)" fill="#00214d"/>
      <path id="Fill_190" data-name="Fill 190" d="M4.263,2.131A2.131,2.131,0,1,1,2.131,0,2.131,2.131,0,0,1,4.263,2.131" transform="translate(66.075 76.732)" fill="#00214d"/>
      <path id="Fill_191" data-name="Fill 191" d="M4.263,2.131A2.131,2.131,0,1,1,2.131,0,2.131,2.131,0,0,1,4.263,2.131" transform="translate(76.732 76.732)" fill="#00214d"/>
      <path id="Fill_192" data-name="Fill 192" d="M4.263,2.131A2.131,2.131,0,1,1,2.131,0,2.131,2.131,0,0,1,4.263,2.131" transform="translate(88.1 76.732)" fill="#00214d"/>
      <path id="Fill_193" data-name="Fill 193" d="M4.263,2.131A2.131,2.131,0,1,1,2.131,0,2.131,2.131,0,0,1,4.263,2.131" transform="translate(98.757 76.732)" fill="#00214d"/>
      <path id="Fill_194" data-name="Fill 194" d="M4.263,2.131A2.131,2.131,0,1,1,2.131,0,2.131,2.131,0,0,1,4.263,2.131" transform="translate(109.415 76.732)" fill="#00214d"/>
      <path id="Fill_195" data-name="Fill 195" d="M4.263,2.131A2.131,2.131,0,1,1,2.131,0,2.131,2.131,0,0,1,4.263,2.131" transform="translate(120.782 76.732)" fill="#00214d"/>
      <path id="Fill_214" data-name="Fill 214" d="M4.263,2.131A2.131,2.131,0,1,1,2.131,0,2.131,2.131,0,0,1,4.263,2.131" transform="translate(0 87.39)" fill="#00214d"/>
      <path id="Fill_215" data-name="Fill 215" d="M4.263,2.131A2.131,2.131,0,1,1,2.131,0,2.131,2.131,0,0,1,4.263,2.131" transform="translate(11.368 87.39)" fill="#00214d"/>
      <path id="Fill_216" data-name="Fill 216" d="M4.263,2.131A2.131,2.131,0,1,1,2.131,0,2.131,2.131,0,0,1,4.263,2.131" transform="translate(22.025 87.39)" fill="#00214d"/>
      <path id="Fill_217" data-name="Fill 217" d="M4.263,2.131A2.131,2.131,0,1,1,2.131,0,2.131,2.131,0,0,1,4.263,2.131" transform="translate(32.682 87.39)" fill="#00214d"/>
      <path id="Fill_218" data-name="Fill 218" d="M4.263,2.131A2.131,2.131,0,1,1,2.131,0,2.131,2.131,0,0,1,4.263,2.131" transform="translate(44.05 87.39)" fill="#00214d"/>
      <path id="Fill_219" data-name="Fill 219" d="M4.263,2.131A2.131,2.131,0,1,1,2.131,0,2.131,2.131,0,0,1,4.263,2.131" transform="translate(54.707 87.39)" fill="#00214d"/>
      <path id="Fill_220" data-name="Fill 220" d="M4.263,2.131A2.131,2.131,0,1,1,2.131,0,2.131,2.131,0,0,1,4.263,2.131" transform="translate(66.075 87.39)" fill="#00214d"/>
      <path id="Fill_221" data-name="Fill 221" d="M4.263,2.131A2.131,2.131,0,1,1,2.131,0,2.131,2.131,0,0,1,4.263,2.131" transform="translate(76.732 87.39)" fill="#00214d"/>
      <path id="Fill_222" data-name="Fill 222" d="M4.263,2.131A2.131,2.131,0,1,1,2.131,0,2.131,2.131,0,0,1,4.263,2.131" transform="translate(88.1 87.39)" fill="#00214d"/>
      <path id="Fill_223" data-name="Fill 223" d="M4.263,2.131A2.131,2.131,0,1,1,2.131,0,2.131,2.131,0,0,1,4.263,2.131" transform="translate(98.757 87.39)" fill="#00214d"/>
      <path id="Fill_224" data-name="Fill 224" d="M4.263,2.131A2.131,2.131,0,1,1,2.131,0,2.131,2.131,0,0,1,4.263,2.131" transform="translate(109.415 87.39)" fill="#00214d"/>
      <path id="Fill_225" data-name="Fill 225" d="M4.263,2.131A2.131,2.131,0,1,1,2.131,0,2.131,2.131,0,0,1,4.263,2.131" transform="translate(120.782 87.39)" fill="#00214d"/>
      <path id="Fill_244" data-name="Fill 244" d="M4.263,2.131A2.131,2.131,0,1,1,2.131,0,2.131,2.131,0,0,1,4.263,2.131" transform="translate(0 98.757)" fill="#00214d"/>
      <path id="Fill_245" data-name="Fill 245" d="M4.263,2.131A2.131,2.131,0,1,1,2.131,0,2.131,2.131,0,0,1,4.263,2.131" transform="translate(11.368 98.757)" fill="#00214d"/>
      <path id="Fill_246" data-name="Fill 246" d="M4.263,2.131A2.131,2.131,0,1,1,2.131,0,2.131,2.131,0,0,1,4.263,2.131" transform="translate(22.025 98.757)" fill="#00214d"/>
      <path id="Fill_247" data-name="Fill 247" d="M4.263,2.131A2.131,2.131,0,1,1,2.131,0,2.131,2.131,0,0,1,4.263,2.131" transform="translate(32.682 98.757)" fill="#00214d"/>
      <path id="Fill_248" data-name="Fill 248" d="M4.263,2.131A2.131,2.131,0,1,1,2.131,0,2.131,2.131,0,0,1,4.263,2.131" transform="translate(44.05 98.757)" fill="#00214d"/>
      <path id="Fill_249" data-name="Fill 249" d="M4.263,2.131A2.131,2.131,0,1,1,2.131,0,2.131,2.131,0,0,1,4.263,2.131" transform="translate(54.707 98.757)" fill="#00214d"/>
      <path id="Fill_250" data-name="Fill 250" d="M4.263,2.131A2.131,2.131,0,1,1,2.131,0,2.131,2.131,0,0,1,4.263,2.131" transform="translate(66.075 98.757)" fill="#00214d"/>
      <path id="Fill_251" data-name="Fill 251" d="M4.263,2.131A2.131,2.131,0,1,1,2.131,0,2.131,2.131,0,0,1,4.263,2.131" transform="translate(76.732 98.757)" fill="#00214d"/>
      <path id="Fill_252" data-name="Fill 252" d="M4.263,2.131A2.131,2.131,0,1,1,2.131,0,2.131,2.131,0,0,1,4.263,2.131" transform="translate(88.1 98.757)" fill="#00214d"/>
      <path id="Fill_253" data-name="Fill 253" d="M4.263,2.131A2.131,2.131,0,1,1,2.131,0,2.131,2.131,0,0,1,4.263,2.131" transform="translate(98.757 98.757)" fill="#00214d"/>
      <path id="Fill_254" data-name="Fill 254" d="M4.263,2.131A2.131,2.131,0,1,1,2.131,0,2.131,2.131,0,0,1,4.263,2.131" transform="translate(109.415 98.757)" fill="#00214d"/>
      <path id="Fill_255" data-name="Fill 255" d="M4.263,2.131A2.131,2.131,0,1,1,2.131,0,2.131,2.131,0,0,1,4.263,2.131" transform="translate(120.782 98.757)" fill="#00214d"/>
      <path id="Fill_274" data-name="Fill 274" d="M4.263,2.131A2.131,2.131,0,1,1,2.131,0,2.131,2.131,0,0,1,4.263,2.131" transform="translate(0 109.415)" fill="#00214d"/>
      <path id="Fill_275" data-name="Fill 275" d="M4.263,2.131A2.131,2.131,0,1,1,2.131,0,2.131,2.131,0,0,1,4.263,2.131" transform="translate(11.368 109.415)" fill="#00214d"/>
      <path id="Fill_276" data-name="Fill 276" d="M4.263,2.131A2.131,2.131,0,1,1,2.131,0,2.131,2.131,0,0,1,4.263,2.131" transform="translate(22.025 109.415)" fill="#00214d"/>
      <path id="Fill_277" data-name="Fill 277" d="M4.263,2.131A2.131,2.131,0,1,1,2.131,0,2.131,2.131,0,0,1,4.263,2.131" transform="translate(32.682 109.415)" fill="#00214d"/>
      <path id="Fill_278" data-name="Fill 278" d="M4.263,2.131A2.131,2.131,0,1,1,2.131,0,2.131,2.131,0,0,1,4.263,2.131" transform="translate(44.05 109.415)" fill="#00214d"/>
      <path id="Fill_279" data-name="Fill 279" d="M4.263,2.131A2.131,2.131,0,1,1,2.131,0,2.131,2.131,0,0,1,4.263,2.131" transform="translate(54.707 109.415)" fill="#00214d"/>
      <path id="Fill_280" data-name="Fill 280" d="M4.263,2.131A2.131,2.131,0,1,1,2.131,0,2.131,2.131,0,0,1,4.263,2.131" transform="translate(66.075 109.415)" fill="#00214d"/>
      <path id="Fill_281" data-name="Fill 281" d="M4.263,2.131A2.131,2.131,0,1,1,2.131,0,2.131,2.131,0,0,1,4.263,2.131" transform="translate(76.732 109.415)" fill="#00214d"/>
      <path id="Fill_282" data-name="Fill 282" d="M4.263,2.131A2.131,2.131,0,1,1,2.131,0,2.131,2.131,0,0,1,4.263,2.131" transform="translate(88.1 109.415)" fill="#00214d"/>
      <path id="Fill_283" data-name="Fill 283" d="M4.263,2.131A2.131,2.131,0,1,1,2.131,0,2.131,2.131,0,0,1,4.263,2.131" transform="translate(98.757 109.415)" fill="#00214d"/>
      <path id="Fill_284" data-name="Fill 284" d="M4.263,2.131A2.131,2.131,0,1,1,2.131,0,2.131,2.131,0,0,1,4.263,2.131" transform="translate(109.415 109.415)" fill="#00214d"/>
      <path id="Fill_285" data-name="Fill 285" d="M4.263,2.131A2.131,2.131,0,1,1,2.131,0,2.131,2.131,0,0,1,4.263,2.131" transform="translate(120.782 109.415)" fill="#00214d"/>
      <path id="Fill_304" data-name="Fill 304" d="M4.263,2.131A2.131,2.131,0,1,1,2.131,0,2.131,2.131,0,0,1,4.263,2.131" transform="translate(0 120.782)" fill="#00214d"/>
      <path id="Fill_305" data-name="Fill 305" d="M4.263,2.131A2.131,2.131,0,1,1,2.131,0,2.131,2.131,0,0,1,4.263,2.131" transform="translate(11.368 120.782)" fill="#00214d"/>
      <path id="Fill_306" data-name="Fill 306" d="M4.263,2.131A2.131,2.131,0,1,1,2.131,0,2.131,2.131,0,0,1,4.263,2.131" transform="translate(22.025 120.782)" fill="#00214d"/>
      <path id="Fill_307" data-name="Fill 307" d="M4.263,2.131A2.131,2.131,0,1,1,2.131,0,2.131,2.131,0,0,1,4.263,2.131" transform="translate(32.682 120.782)" fill="#00214d"/>
      <path id="Fill_308" data-name="Fill 308" d="M4.263,2.131A2.131,2.131,0,1,1,2.131,0,2.131,2.131,0,0,1,4.263,2.131" transform="translate(44.05 120.782)" fill="#00214d"/>
      <path id="Fill_309" data-name="Fill 309" d="M4.263,2.131A2.131,2.131,0,1,1,2.131,0,2.131,2.131,0,0,1,4.263,2.131" transform="translate(54.707 120.782)" fill="#00214d"/>
      <path id="Fill_310" data-name="Fill 310" d="M4.263,2.131A2.131,2.131,0,1,1,2.131,0,2.131,2.131,0,0,1,4.263,2.131" transform="translate(66.075 120.782)" fill="#00214d"/>
      <path id="Fill_311" data-name="Fill 311" d="M4.263,2.131A2.131,2.131,0,1,1,2.131,0,2.131,2.131,0,0,1,4.263,2.131" transform="translate(76.732 120.782)" fill="#00214d"/>
      <path id="Fill_312" data-name="Fill 312" d="M4.263,2.131A2.131,2.131,0,1,1,2.131,0,2.131,2.131,0,0,1,4.263,2.131" transform="translate(88.1 120.782)" fill="#00214d"/>
      <path id="Fill_313" data-name="Fill 313" d="M4.263,2.131A2.131,2.131,0,1,1,2.131,0,2.131,2.131,0,0,1,4.263,2.131" transform="translate(98.757 120.782)" fill="#00214d"/>
      <path id="Fill_314" data-name="Fill 314" d="M4.263,2.131A2.131,2.131,0,1,1,2.131,0,2.131,2.131,0,0,1,4.263,2.131" transform="translate(109.415 120.782)" fill="#00214d"/>
      <path id="Fill_315" data-name="Fill 315" d="M4.263,2.131A2.131,2.131,0,1,1,2.131,0,2.131,2.131,0,0,1,4.263,2.131" transform="translate(120.782 120.782)" fill="#00214d"/>
      <path id="Fill_334" data-name="Fill 334" d="M4.263,2.131A2.131,2.131,0,1,1,2.131,0,2.131,2.131,0,0,1,4.263,2.131" transform="translate(0 131.44)" fill="#00214d"/>
      <path id="Fill_335" data-name="Fill 335" d="M4.263,2.131A2.131,2.131,0,1,1,2.131,0,2.131,2.131,0,0,1,4.263,2.131" transform="translate(11.368 131.44)" fill="#00214d"/>
      <path id="Fill_336" data-name="Fill 336" d="M4.263,2.131A2.131,2.131,0,1,1,2.131,0,2.131,2.131,0,0,1,4.263,2.131" transform="translate(22.025 131.44)" fill="#00214d"/>
      <path id="Fill_337" data-name="Fill 337" d="M4.263,2.131A2.131,2.131,0,1,1,2.131,0,2.131,2.131,0,0,1,4.263,2.131" transform="translate(32.682 131.44)" fill="#00214d"/>
      <path id="Fill_338" data-name="Fill 338" d="M4.263,2.131A2.131,2.131,0,1,1,2.131,0,2.131,2.131,0,0,1,4.263,2.131" transform="translate(44.05 131.44)" fill="#00214d"/>
      <path id="Fill_339" data-name="Fill 339" d="M4.263,2.131A2.131,2.131,0,1,1,2.131,0,2.131,2.131,0,0,1,4.263,2.131" transform="translate(54.707 131.44)" fill="#00214d"/>
      <path id="Fill_340" data-name="Fill 340" d="M4.263,2.131A2.131,2.131,0,1,1,2.131,0,2.131,2.131,0,0,1,4.263,2.131" transform="translate(66.075 131.44)" fill="#00214d"/>
      <path id="Fill_341" data-name="Fill 341" d="M4.263,2.131A2.131,2.131,0,1,1,2.131,0,2.131,2.131,0,0,1,4.263,2.131" transform="translate(76.732 131.44)" fill="#00214d"/>
      <path id="Fill_342" data-name="Fill 342" d="M4.263,2.131A2.131,2.131,0,1,1,2.131,0,2.131,2.131,0,0,1,4.263,2.131" transform="translate(88.1 131.44)" fill="#00214d"/>
      <path id="Fill_343" data-name="Fill 343" d="M4.263,2.131A2.131,2.131,0,1,1,2.131,0,2.131,2.131,0,0,1,4.263,2.131" transform="translate(98.757 131.44)" fill="#00214d"/>
      <path id="Fill_344" data-name="Fill 344" d="M4.263,2.131A2.131,2.131,0,1,1,2.131,0,2.131,2.131,0,0,1,4.263,2.131" transform="translate(109.415 131.44)" fill="#00214d"/>
      <path id="Fill_345" data-name="Fill 345" d="M4.263,2.131A2.131,2.131,0,1,1,2.131,0,2.131,2.131,0,0,1,4.263,2.131" transform="translate(120.782 131.44)" fill="#00214d"/>
      <path id="Fill_725" data-name="Fill 725" d="M4.263,2.131A2.131,2.131,0,1,1,2.131,0,2.131,2.131,0,0,1,4.263,2.131" transform="translate(11.368)" fill="#00214d"/>
      <path id="Fill_726" data-name="Fill 726" d="M4.263,2.131A2.131,2.131,0,1,1,2.131,0,2.131,2.131,0,0,1,4.263,2.131" transform="translate(22.025)" fill="#00214d"/>
      <path id="Fill_727" data-name="Fill 727" d="M4.263,2.131A2.131,2.131,0,1,1,2.131,0,2.131,2.131,0,0,1,4.263,2.131" transform="translate(32.682)" fill="#00214d"/>
      <path id="Fill_728" data-name="Fill 728" d="M4.263,2.131A2.131,2.131,0,1,1,2.131,0,2.131,2.131,0,0,1,4.263,2.131" transform="translate(44.05)" fill="#00214d"/>
      <path id="Fill_729" data-name="Fill 729" d="M4.263,2.131A2.131,2.131,0,1,1,2.131,0,2.131,2.131,0,0,1,4.263,2.131" transform="translate(54.707)" fill="#00214d"/>
      <path id="Fill_730" data-name="Fill 730" d="M4.263,2.131A2.131,2.131,0,1,1,2.131,0,2.131,2.131,0,0,1,4.263,2.131" transform="translate(66.075)" fill="#00214d"/>
      <path id="Fill_731" data-name="Fill 731" d="M4.263,2.131A2.131,2.131,0,1,1,2.131,0,2.131,2.131,0,0,1,4.263,2.131" transform="translate(76.732)" fill="#00214d"/>
      <path id="Fill_732" data-name="Fill 732" d="M4.263,2.131A2.131,2.131,0,1,1,2.131,0,2.131,2.131,0,0,1,4.263,2.131" transform="translate(88.1)" fill="#00214d"/>
      <path id="Fill_733" data-name="Fill 733" d="M4.263,2.131A2.131,2.131,0,1,1,2.131,0,2.131,2.131,0,0,1,4.263,2.131" transform="translate(98.757)" fill="#00214d"/>
      <path id="Fill_734" data-name="Fill 734" d="M4.263,2.131A2.131,2.131,0,1,1,2.131,0,2.131,2.131,0,0,1,4.263,2.131" transform="translate(109.415)" fill="#00214d"/>
      <path id="Fill_735" data-name="Fill 735" d="M4.263,2.131A2.131,2.131,0,1,1,2.131,0,2.131,2.131,0,0,1,4.263,2.131" transform="translate(120.782)" fill="#00214d"/>
    </g>
  </g>
</svg>
